<svg width="40" height="40" viewBox="0 0 40 40" fill="none" xmlns="http://www.w3.org/2000/svg">
<path d="M37.8512 11.1334C36.627 9.90922 35.16 9.30688 33.4308 9.30688C31.7016 9.30688 30.2441 9.86063 29.0394 11.1236H29.0005C27.7958 9.86063 26.3578 9.30688 24.6286 9.30688C22.9089 9.30688 21.4322 9.90922 20.2081 11.1334C18.9937 12.3577 18.3816 13.8344 18.3816 15.5539C18.3816 17.7981 19.0228 19.2748 19.9458 21.082C21.5877 23.8509 22.6564 25.4734 23.1325 25.9495L23.2491 26.0661C24.0555 26.8239 24.9298 27.2319 25.8917 27.2319C27.213 27.2319 28.2428 26.6684 29.0103 25.6969H29.0492C29.807 26.6684 30.8562 27.2319 32.1777 27.2319C33.1395 27.2319 34.0236 26.8336 34.8203 26.0758L34.9369 25.9495C35.4227 25.4734 36.4816 23.8413 38.1236 21.082C39.0462 19.275 39.6875 17.7983 39.6875 15.5541C39.6875 13.8247 39.0755 12.3577 37.8512 11.1334ZM37.2295 19.275C37.1227 19.4888 36.9186 19.6053 36.6952 19.6053C36.6077 19.6053 36.5203 19.5859 36.4328 19.547C36.1414 19.4013 36.015 19.0516 36.1608 18.7602C36.6855 17.7013 36.9672 16.7491 37.0061 15.9427C37.0547 15.0294 36.7244 14.155 36.0638 13.4652C35.3545 12.717 34.3539 12.2895 33.3241 12.2895C32.9938 12.2895 32.7314 12.0272 32.7314 11.6969C32.7314 11.3666 32.9938 11.1042 33.3241 11.1042C34.6842 11.1042 35.9958 11.6677 36.9284 12.6489C37.8028 13.5719 38.2497 14.7669 38.1914 16.0008C38.1428 16.9628 37.8222 18.0703 37.2295 19.275ZM32.6244 8.04391C31.8958 8.55875 29.0297 10.3563 29.0297 10.3563L27.5044 4.18688L28.777 3.28329L29.6125 6.94594C29.8069 4.8086 31.1281 3.77875 34.3148 2.70032C34.6938 5.38188 34.3634 6.77125 32.6244 8.04391ZM34.8366 29.4303L25.7811 31.5055C25.7183 31.9456 25.5295 32.4173 25.2466 32.7947C24.712 33.6122 23.8945 34.2095 22.9513 34.4611C22.008 34.6813 21.0019 34.5239 20.1844 33.958L12.3866 28.99C12.0092 28.7698 11.9464 28.3297 12.1664 27.9839C12.3866 27.638 12.8267 27.5438 13.1411 27.7638L20.9703 32.7317C22.008 33.3606 23.36 33.0777 24.0203 32.0714C24.6806 31.0652 24.3662 29.6817 23.36 29.0214L13.6128 22.8586C12.0092 21.8525 10.1541 21.0664 8.39328 21.9467L0.3125 26.5377L0.343906 35.4674L6.09797 31.4741C7.00984 31.2539 8.01594 31.4427 8.86484 31.9772L15.6564 36.2534C17.3228 37.2911 19.3666 37.5427 21.1275 37.0709L35.8427 33.7066C37.0061 33.455 37.792 32.2917 37.5091 31.0339C37.1947 29.902 36.0314 29.1789 34.8366 29.4303Z" fill="white"/>
</svg>
