<svg width="50" height="50" viewBox="0 0 50 50" fill="none" xmlns="http://www.w3.org/2000/svg">
<mask id="mask0_172_93" style="mask-type:luminance" maskUnits="userSpaceOnUse" x="17" y="3" width="33" height="47">
<path d="M17.5004 3.18237H50V50H17.5004V3.18237Z" fill="white"/>
</mask>
<g mask="url(#mask0_172_93)">
<path fill-rule="evenodd" clip-rule="evenodd" d="M28.3102 21.8557C27.6427 21.5279 27.3644 20.7152 27.6942 20.0501L33.9409 7.44636L36.3717 8.63821L30.1251 21.2419C29.7952 21.907 28.9792 22.182 28.3102 21.8557ZM35.9106 3.21042L35.9497 3.24149C46.453 8.95365 50.6534 21.9427 45.3103 32.7237C43.7439 35.8844 41.5257 38.5151 38.8979 40.5321C34.4677 43.9305 28.8714 45.5901 23.2594 45.1192L30.0344 31.4495C31.0474 29.4823 31.4898 29.1575 33.3922 28.3619C35.3869 27.5275 36.0716 27.3581 37.1393 25.5167C39.1777 21.994 41.3741 15.5391 42.7497 11.746L41.1115 10.9815C39.3794 14.7559 38.4868 16.9998 36.6734 20.5271C32.4996 28.6541 31.8884 24.5362 28.8448 27.5927C28.4931 27.9455 27.1862 30.2717 25.6323 33.1977L18.4258 47.7407L17.7693 49.063C24.6381 50.9744 32.273 50.0047 38.6666 45.7532C43.0327 42.8505 46.1982 38.8321 48.0381 34.3336C47.9428 34.5558 47.8443 34.7764 47.7411 34.9987C53.1952 23.2496 48.2617 9.252 36.5234 3.49789C36.3202 3.39844 36.1154 3.3021 35.9106 3.20886V3.21042ZM31.7868 23.5588C31.1177 23.2309 30.841 22.4182 31.1709 21.7547L37.4175 9.14944L39.8484 10.3413L33.6017 22.945C33.2719 23.6101 32.4558 23.8851 31.7868 23.5588Z" fill="#F2BA20"/>
</g>
<mask id="mask1_172_93" style="mask-type:luminance" maskUnits="userSpaceOnUse" x="0" y="0" width="33" height="47">
<path d="M0 0H32.7075V46.1448H0V0Z" fill="white"/>
</mask>
<g mask="url(#mask1_172_93)">
<path fill-rule="evenodd" clip-rule="evenodd" d="M1.33185 22.7711L1.75862 22.2257C2.06814 21.7393 1.92275 22.0315 2.21664 21.4348L3.94714 17.8888C6.05907 14.1454 11.174 7.60192 17.0767 5.81804C13.0623 8.67101 7.1971 12.6956 3.36093 23.1752C-0.10163 32.6322 2.20257 39.8563 6.88133 43.2858C11.2146 46.4604 16.7922 47.2436 18.9948 42.9828C20.7144 39.6559 22.573 36.0586 24.3708 32.5794C25.7573 29.571 26.8172 27.1236 26.886 26.631C27.4691 22.3687 23.8143 24.395 27.752 16.1531C29.4622 12.5744 30.7065 10.5031 32.6621 6.83895L31.0551 6.01227C28.8682 9.40756 25.057 15.0715 23.4907 18.8258C22.6715 20.7899 22.9513 21.4317 23.5016 23.5139C24.0269 25.4982 24.0362 26.0452 23.0842 28.042L17.7098 38.4563C15.2024 43.3138 10.297 42.0225 7.13144 38.4236C4.59119 35.5365 3.56727 30.9758 5.12894 26.0701C7.80207 24.5908 11.2412 24.8674 15.0008 22.4153C21.3068 18.3037 22.362 6.71619 29.5904 1.75768C21.5241 -4.37714 -6.22794 6.25158 1.33342 22.7711H1.33185Z" fill="#69B550"/>
</g>
</svg>
